<?xml version="1.0" encoding="utf-8"?>
<svg width="489px" height="352" viewBox="0 0 489 352" fill="none" xmlns="http://www.w3.org/2000/svg">
  <path d="M 428.317 352.787 C 406.217 307.187 393.817 252.587 393.817 252.587 L 392.817 247.287 L 348.317 252.587 L 348.317 352.787 L 428.317 352.787 Z" fill="#2835BD"/>
  <path d="M 418.717 352.787 C 399.317 312.787 388.517 264.887 388.517 264.887 L 385.917 251.487 L 348.617 264.887 L 348.617 352.787 L 418.717 352.787 Z" fill="black"/>
  <path d="M 425.717 219.387 L 409.517 219.387 L 409.517 352.847 L 425.717 352.847 L 425.717 219.387 Z" fill="#2835BD"/>
  <path d="M 425.717 236.687 C 423.291 237.792 420.6 238.181 417.961 237.809 C 415.321 237.437 412.843 236.319 410.817 234.587 L 409.517 233.487 L 409.517 227.487 L 425.717 224.387 L 425.717 236.687 Z" fill="black"/>
  <path d="M 400.917 352.787 C 412.017 350.087 427.117 335.387 427.117 335.387 C 427.117 335.387 432.417 346.787 435.517 352.787 L 446.717 352.787 C 447.926 352.794 449.123 352.545 450.23 352.058 C 451.337 351.571 452.328 350.855 453.14 349.959 C 453.951 349.062 454.565 348.005 454.94 346.855 C 455.315 345.706 455.444 344.49 455.317 343.287 C 454.817 338.387 452.517 332.887 449.017 324.887 C 443.117 311.587 441.217 304.587 429.717 304.587 L 419.317 304.587 L 395.317 293.987 C 379.917 302.087 369.317 306.787 360.217 312.187 C 346.817 320.387 336.217 336.587 346.617 352.787 L 400.917 352.787 Z" fill="#FFC619"/>
  <path d="M 231.917 264.887 L 231.917 352.787 L 353.717 352.787 C 373.117 312.787 383.917 264.887 383.917 264.887 L 386.817 252.587 L 231.917 264.887 Z" fill="#2835BD"/>
  <path d="M 356.117 267.587 L 231.917 279.187 L 231.917 352.787 L 324.817 352.787 C 333.817 332.287 356.117 267.587 356.117 267.587 Z" fill="black"/>
  <path d="M 339.617 346.087 C 349.862 330.245 357.997 313.134 363.817 295.187" stroke="black" stroke-width="2" stroke-linecap="round" stroke-linejoin="round"/>
  <path d="M 325.117 333.887 C 319.972 333.887 315.037 335.931 311.399 339.569 C 307.761 343.207 305.717 348.142 305.717 353.287 L 344.517 353.287 C 344.517 348.142 342.473 343.207 338.835 339.569 C 335.197 335.931 330.262 333.887 325.117 333.887 Z" fill="#404EED"/>
  <path d="M 352.717 352.787 C 372.117 312.787 383.017 264.887 383.017 264.887 L 352.717 352.787 Z" fill="#2835BD"/>
  <path d="M 390.217 352.687 C 390.117 352.487 383.217 335.087 379.617 323.887 L 379.417 323.187 C 377.017 315.587 375.017 309.487 375.317 304.087 L 373.617 304.987 C 373.617 310.387 375.517 316.387 377.917 323.687 L 378.117 324.387 C 381.417 334.587 387.317 349.887 388.517 352.787 L 390.217 352.787 L 390.217 352.687 Z" fill="black"/>
  <path d="M 452.717 350.387 C 453.334 349.784 453.8 349.044 454.078 348.228 C 454.355 347.411 454.438 346.541 454.317 345.687 C 453.617 338.587 449.917 330.087 446.017 321.287 L 442.017 311.887 L 440.517 312.487 C 441.817 315.687 443.217 318.787 444.517 321.887 C 449.217 332.587 453.717 342.887 452.717 350.387 Z" fill="white"/>
  <path d="M 419.317 324.287 C 417.417 332.087 414.717 341.787 411.217 352.787 L 390.217 352.787 C 390.217 352.787 383.417 335.287 379.717 323.987 C 376.017 312.687 373.317 304.587 377.017 297.087 C 380.717 289.587 386.517 288.987 395.317 293.987 L 394.017 308.187 L 400.717 327.187 L 403.817 317.087 C 410.417 312.787 418.717 315.187 419.317 324.287 Z" fill="#FFC619"/>
  <path d="M 392.217 346.487 L 390.517 341.587 C 386.817 330.687 383.617 321.387 381.417 312.887 C 379.617 305.887 378.117 297.587 379.017 293.887 C 378.282 294.783 377.645 295.755 377.117 296.787 C 377.117 302.187 378.917 309.687 379.817 313.287 C 382.117 321.887 385.317 331.187 389.017 342.087 L 390.717 347.087 C 391.45 349.154 392.15 351.054 392.817 352.787 L 394.617 352.787 C 393.817 350.987 393.117 348.987 392.217 346.487 Z" fill="white"/>
  <path d="M 407.417 352.787 C 409.717 345.087 413.017 333.787 417.317 319.187 C 417.347 319.082 417.355 318.972 417.34 318.864 C 417.326 318.755 417.29 318.651 417.233 318.557 C 417.177 318.464 417.102 318.382 417.013 318.319 C 416.925 318.255 416.824 318.21 416.717 318.187 C 416.62 318.139 416.513 318.114 416.405 318.114 C 416.296 318.114 416.189 318.139 416.092 318.188 C 415.995 318.236 415.911 318.307 415.846 318.393 C 415.781 318.48 415.737 318.581 415.717 318.687 C 411.317 333.587 408.017 345.087 405.717 352.787 L 407.417 352.787 Z" fill="white"/>
  <path d="M 415.517 262.787 C 402.917 260.987 398.117 261.887 393.417 272.487 C 388.717 283.087 391.117 292.087 398.917 303.487 C 406.717 314.887 425.917 312.787 433.217 310.087 C 440.517 307.387 446.917 300.087 450.517 289.787 C 454.117 279.487 453.017 268.187 447.617 261.987 C 442.217 255.787 433.117 250.687 424.917 253.287 C 416.717 255.887 415.517 262.787 415.517 262.787 Z" fill="#DE3A93"/>
  <path d="M 421.617 277.687 L 417.817 276.687" stroke="black" stroke-width="2" stroke-linecap="round" stroke-linejoin="round"/>
  <path d="M 421.817 279.287 L 417.917 279.787" stroke="black" stroke-width="2" stroke-linecap="round" stroke-linejoin="round"/>
  <path d="M 449.417 277.387 L 452.417 275.387" stroke="black" stroke-width="2" stroke-linecap="round" stroke-linejoin="round"/>
  <path d="M 449.217 279.087 L 452.317 278.587" stroke="black" stroke-width="2" stroke-linecap="round" stroke-linejoin="round"/>
  <path d="M 411.417 252.587 C 409.317 252.587 407.717 253.987 407.617 254.987 C 407.517 255.987 411.317 259.187 416.217 265.287 L 417.517 264.787 C 412.917 252.987 413.517 252.487 411.417 252.587 Z" fill="black"/>
  <path d="M 421.117 261.887 C 417.317 264.287 412.917 267.587 412.917 267.587" stroke="black" stroke-width="2" stroke-linecap="round" stroke-linejoin="round"/>
  <path d="M 419.317 324.287 C 420.517 319.187 421.417 314.887 421.917 311.587 C 423.317 302.987 420.717 301.587 416.917 300.487 C 413.117 299.387 410.417 297.287 408.617 290.787 C 406.817 284.287 405.717 284.387 403.517 285.487 C 401.117 286.786 399.06 288.637 397.517 290.887 C 396.317 292.987 396.517 295.387 398.817 301.287 C 400.339 304.977 402.784 308.214 405.917 310.687 L 403.817 317.087 C 411.517 316.787 416.117 317.787 419.317 324.287 Z" fill="#FF78B9"/>
  <path d="M 431.817 320.287 C 430.717 315.387 429.317 310.087 431.817 308.687 C 434.317 307.287 442.017 303.687 446.217 294.587 C 446.305 294.361 446.437 294.154 446.607 293.98 C 446.776 293.806 446.979 293.668 447.204 293.575 C 447.428 293.481 447.669 293.434 447.912 293.436 C 448.154 293.439 448.394 293.49 448.617 293.587 L 448.817 293.587 C 448.999 293.653 449.166 293.755 449.307 293.889 C 449.448 294.022 449.559 294.183 449.634 294.361 C 449.709 294.54 449.747 294.732 449.744 294.926 C 449.741 295.12 449.698 295.311 449.617 295.487 C 447.571 299.837 445.128 303.988 442.317 307.887 C 442.9 310.232 443.635 312.537 444.517 314.787 C 439.917 317.087 431.817 320.287 431.817 320.287 Z" fill="#FF78B9"/>
  <path d="M 407.217 304.287 C 407.365 304.122 407.446 303.909 407.446 303.687 C 407.446 303.466 407.365 303.252 407.217 303.087 C 405.722 301.52 404.383 299.812 403.217 297.987 C 401.317 294.687 399.517 288.787 400.817 287.287 L 399.417 288.587 C 399.195 288.827 399.026 289.112 398.923 289.422 C 398.819 289.733 398.783 290.062 398.817 290.387 C 399.346 293.334 400.36 296.172 401.817 298.787 C 403.026 300.759 404.434 302.601 406.017 304.287 L 406.617 304.487 L 407.217 304.287 Z" fill="black"/>
  <path d="M 406.717 310.887 C 409.602 310.531 412.511 310.398 415.417 310.487" stroke="black" stroke-width="2" stroke-linecap="round" stroke-linejoin="round"/>
  <path d="M 397.217 338.087 L 403.517 318.087" stroke="black" stroke-width="2" stroke-linecap="round" stroke-linejoin="round"/>
  <path d="M 400.717 327.187 L 394.617 309.687" stroke="black" stroke-width="2" stroke-linecap="round" stroke-linejoin="round"/>
  <path d="M 431.917 321.087 C 433.717 330.787 437.617 344.387 437.617 344.387" stroke="black" stroke-width="2" stroke-linecap="round" stroke-linejoin="round"/>
  <path d="M 350.817 327.387 C 347.343 327.387 344.011 328.767 341.554 331.224 C 339.097 333.681 337.717 337.013 337.717 340.487 L 337.717 353.287 L 363.817 353.287 L 363.817 340.487 C 363.817 337.03 362.451 333.713 360.016 331.259 C 357.58 328.805 354.274 327.414 350.817 327.387 Z" fill="#404EED"/>
  <path d="M 363.817 340.487 C 362.128 340.474 360.452 340.795 358.888 341.433 C 357.323 342.07 355.901 343.011 354.701 344.201 C 353.502 345.391 352.55 346.806 351.901 348.366 C 351.251 349.925 350.917 351.598 350.917 353.287 L 376.617 353.287 C 376.617 349.892 375.268 346.637 372.868 344.236 C 370.468 341.836 367.212 340.487 363.817 340.487 Z" fill="#404EED"/>
  <path d="M 403.917 228.887 L 423.617 225.787" stroke="black" stroke-width="8" stroke-linecap="round" stroke-linejoin="round"/>
  <path d="M 445.117 265.487 L 445.817 266.587" stroke="#FFA8D2" stroke-width="3" stroke-linecap="round" stroke-linejoin="round"/>
  <path d="M 435.217 258.187 C 437.806 258.963 440.195 260.294 442.217 262.087" stroke="#FFA8D2" stroke-width="3" stroke-linecap="round" stroke-linejoin="round"/>
  <path d="M 423.117 225.887 C 439.817 223.087 466.617 216.887 480.517 213.187" stroke="#2835BD" stroke-width="8" stroke-linecap="round" stroke-linejoin="round"/>
  <path d="M 475.517 215.887 L 480.817 240.487" stroke="black" stroke-width="2" stroke-linecap="round" stroke-linejoin="round"/>
  <path d="M 485.817 239.687 L 485.817 236.487 L 465.217 236.487 L 465.217 239.787 C 465.175 240.244 465.039 240.686 464.817 241.087 C 463.785 242.589 463.228 244.365 463.217 246.187 L 463.217 259.287 C 463.219 261.501 464.019 263.639 465.47 265.311 C 466.921 266.982 468.926 268.074 471.117 268.387 C 474.07 268.787 477.064 268.787 480.017 268.387 C 482.181 268.05 484.15 266.945 485.564 265.273 C 486.979 263.602 487.743 261.477 487.717 259.287 L 487.717 246.187 C 487.742 244.375 487.219 242.597 486.217 241.087 C 485.936 240.676 485.795 240.185 485.817 239.687 Z" fill="#8CD9FF"/>
  <path d="M 483.917 241.087 L 483.917 236.987 L 467.017 236.987 L 467.017 241.087 C 467.022 241.893 466.815 242.686 466.417 243.387 C 465.619 244.567 465.201 245.963 465.217 247.387 L 465.217 258.587 C 465.219 260.447 465.885 262.244 467.095 263.656 C 468.305 265.068 469.98 266.001 471.817 266.287 C 474.208 266.587 476.626 266.587 479.017 266.287 C 480.881 266.043 482.592 265.125 483.826 263.707 C 485.06 262.288 485.733 260.467 485.717 258.587 L 485.717 247.387 C 485.708 245.98 485.329 244.601 484.617 243.387 C 484.192 242.692 483.951 241.901 483.917 241.087 Z" fill="#5865F2"/>
  <path d="M 465.217 238.087 C 465.217 239.487 469.817 240.587 475.517 240.587 C 481.217 240.587 485.817 239.487 485.817 238.087 L 475.517 233.987 L 465.217 238.087 Z" fill="#8CD9FF"/>
  <path d="M 464.617 237.287 C 464.529 237.437 464.472 237.604 464.449 237.777 C 464.427 237.95 464.439 238.125 464.486 238.293 C 464.532 238.461 464.612 238.618 464.721 238.754 C 464.829 238.891 464.964 239.004 465.117 239.087 C 466.817 240.087 470.817 240.787 475.517 240.787 C 480.217 240.787 484.217 240.087 485.917 239.087 C 486.207 238.901 486.419 238.615 486.511 238.283 C 486.603 237.951 486.57 237.596 486.417 237.287 L 475.517 215.887 L 464.617 237.287 Z" stroke="black" stroke-width="2" stroke-linecap="round" stroke-linejoin="round"/>
  <path d="M 474.517 259.387 L 471.417 258.687 C 471.118 258.579 470.869 258.366 470.717 258.087 C 470.575 257.808 470.548 257.484 470.641 257.185 C 470.735 256.886 470.941 256.636 471.217 256.487 C 471.367 256.399 471.534 256.342 471.707 256.319 C 471.879 256.297 472.055 256.309 472.223 256.356 C 472.391 256.402 472.548 256.482 472.684 256.591 C 472.82 256.699 472.934 256.834 473.017 256.987 L 474.517 259.387 Z" fill="white"/>
  <path d="M 474.517 259.387 L 474.317 256.287 C 474.311 256.14 474.335 255.994 474.386 255.857 C 474.438 255.719 474.516 255.594 474.617 255.487 C 474.702 255.357 474.817 255.248 474.951 255.17 C 475.086 255.091 475.237 255.046 475.392 255.036 C 475.547 255.026 475.703 255.053 475.846 255.114 C 475.989 255.175 476.116 255.268 476.217 255.387 C 476.478 255.602 476.645 255.91 476.682 256.247 C 476.719 256.583 476.624 256.92 476.417 257.187 L 474.517 259.387 Z" fill="white"/>
  <path d="M 475.117 262.287 C 473.417 262.787 471.817 262.287 471.417 261.187 C 471.017 260.087 471.617 259.487 473.217 259.087 C 473.915 258.907 474.587 258.638 475.217 258.287 C 476.517 257.587 477.217 258.387 477.517 259.287 C 477.817 260.187 476.817 261.687 475.117 262.287 Z" fill="#121B80"/>
  <path d="M 472.053 259.265 L 470.853 259.244 C 470.025 259.23 469.341 259.889 469.327 260.718 L 469.325 260.808 C 469.311 261.636 469.971 262.319 470.799 262.334 L 471.999 262.355 C 472.827 262.369 473.51 261.709 473.525 260.881 L 473.526 260.791 C 473.541 259.963 472.881 259.28 472.053 259.265 Z" fill="#FFE75C"/>
  <path d="M 477.717 247.587 L 480.517 246.087 C 480.738 245.898 480.909 245.657 481.017 245.387 C 481.063 245.236 481.079 245.077 481.064 244.92 C 481.049 244.763 481.003 244.61 480.928 244.471 C 480.854 244.332 480.753 244.208 480.631 244.108 C 480.509 244.008 480.368 243.933 480.217 243.887 C 479.885 243.795 479.531 243.838 479.231 244.006 C 478.931 244.175 478.71 244.456 478.617 244.787 L 477.717 247.587 Z" fill="white"/>
  <path d="M 477.717 247.587 L 477.217 244.487 C 477.11 244.187 476.94 243.914 476.717 243.687 C 476.441 243.54 476.123 243.49 475.815 243.544 C 475.507 243.598 475.226 243.754 475.017 243.987 C 474.825 244.294 474.76 244.663 474.834 245.018 C 474.909 245.372 475.118 245.684 475.417 245.887 L 477.717 247.587 Z" fill="white"/>
  <path d="M 478.517 247.187 C 479.917 248.187 480.617 249.787 479.917 250.687 C 479.217 251.587 478.417 251.687 477.117 250.587 C 476.57 250.141 475.964 249.771 475.317 249.487 C 475.07 249.426 474.845 249.299 474.664 249.119 C 474.484 248.94 474.357 248.714 474.295 248.468 C 474.233 248.221 474.24 247.962 474.314 247.719 C 474.389 247.476 474.528 247.257 474.717 247.087 C 475.317 246.087 477.117 246.187 478.517 247.187 Z" fill="#121B80"/>
  <path d="M 477.822 250.785 L 478.529 251.755 C 479.017 252.424 479.955 252.571 480.625 252.083 L 480.697 252.03 C 481.367 251.542 481.514 250.603 481.026 249.934 L 480.319 248.964 C 479.83 248.295 478.892 248.148 478.223 248.636 L 478.15 248.689 C 477.481 249.177 477.334 250.116 477.822 250.785 Z" fill="#FFE75C"/>
  <path d="M 475.517 238.987 C 481.206 238.987 485.817 237.868 485.817 236.487 C 485.817 235.106 481.206 233.987 475.517 233.987 C 469.828 233.987 465.217 235.106 465.217 236.487 C 465.217 237.868 469.828 238.987 475.517 238.987 Z" fill="#8CD9FF"/>
  <path d="M 485.917 236.487 L 465.217 236.487 L 465.217 237.907 L 485.917 237.907 L 485.917 236.487 Z" fill="#8CD9FF"/>
  <path d="M 479.717 237.287 C 479.217 237.387 478.817 237.687 478.817 238.187 C 478.829 238.293 478.863 238.394 478.915 238.487 C 478.967 238.579 479.037 238.66 479.12 238.726 C 479.204 238.791 479.3 238.839 479.402 238.866 C 479.505 238.894 479.612 238.901 479.717 238.887 L 481.417 238.587 C 481.642 238.549 481.849 238.442 482.01 238.281 C 482.172 238.119 482.279 237.912 482.317 237.687 C 482.307 237.584 482.274 237.485 482.22 237.396 C 482.167 237.308 482.095 237.232 482.009 237.174 C 481.923 237.117 481.825 237.08 481.723 237.064 C 481.62 237.049 481.516 237.057 481.417 237.087 L 479.717 237.287 Z" fill="white"/>
  <path d="M 475.517 215.887 L 470.217 240.487" stroke="black" stroke-width="2" stroke-linecap="round" stroke-linejoin="round"/>
  <path d="M 476.317 217.587 L 473.717 211.987" stroke="black" stroke-width="2" stroke-linecap="round" stroke-linejoin="round"/>
  <path d="M 475.717 217.887 L 476.017 211.487" stroke="black" stroke-width="2" stroke-linecap="round" stroke-linejoin="round"/>
  <path d="M 447.617 282.787 C 450.917 278.987 450.417 276.687 449.317 275.987 C 448.217 275.287 446.517 276.587 443.517 281.387 C 440.517 286.187 443.017 287.987 447.617 282.787 Z" fill="white"/>
  <path d="M 431.917 282.787 C 429.717 278.187 425.917 274.887 422.417 275.387 C 418.917 275.887 420.317 281.087 424.917 284.587 C 429.517 288.087 434.317 287.787 431.917 282.787 Z" fill="white"/>
  <path d="M 449.117 278.587 C 449.311 277.687 449.241 276.749 448.917 275.887 C 448.017 275.787 446.617 276.787 444.717 279.487 C 444.917 280.887 445.617 281.887 446.417 281.987 C 447.217 282.087 448.917 280.687 449.117 278.587 Z" fill="black"/>
  <path d="M 432.017 283.087 C 432.017 282.987 431.917 282.887 431.917 282.787 C 430.85 280.47 429.237 278.445 427.217 276.887 C 426.64 278.03 426.397 279.312 426.517 280.587 C 426.717 283.287 428.117 285.387 429.717 285.287 C 430.284 285.211 430.812 284.957 431.226 284.562 C 431.639 284.167 431.916 283.65 432.017 283.087 Z" fill="black"/>
  <path d="M 433.917 293.087 C 440.217 291.487 442.717 290.787 443.717 292.187 C 444.717 293.587 443.817 295.187 442.317 296.787 C 443.917 300.287 443.417 301.887 440.317 301.887 C 438.057 301.726 435.866 301.041 433.917 299.887" stroke="black" stroke-width="2" stroke-linecap="round" stroke-linejoin="round"/>
  <path d="M 440.617 295.087 C 440.225 296.125 439.686 297.102 439.017 297.987" stroke="black" stroke-width="2" stroke-linecap="round" stroke-linejoin="round"/>
  <path d="M 12.517 352.787 L 22.917 352.787 L 30.717 328.987 L 10.217 328.987 L 12.517 352.787 Z" fill="black"/>
  <path d="M 143.617 352.787 L 87.917 352.787 C 52.117 352.787 31.517 342.487 16.117 330.787 L 12.517 352.787 L 3.417 352.787 C 3.417 247.187 17.017 146.987 17.017 146.987 C 19.017 135.687 40.517 130.587 67.217 139.887 C 93.917 149.187 101.017 161.087 100.017 171.887 C 99.017 182.687 90.517 255.487 87.317 289.587 L 93.017 295.787 C 94.983 297.83 96.441 300.306 97.275 303.015 C 98.109 305.725 98.295 308.592 97.817 311.387 L 97.217 314.687 C 119.217 328.887 153.217 321.787 143.617 352.787 Z" fill="#29CC7A"/>
  <path d="M 28.117 166.387 C 27.217 178.987 27.017 184.187 27.017 186.187 C 27.01 186.503 27.069 186.817 27.19 187.11 C 27.31 187.402 27.49 187.667 27.717 187.887 C 33.617 193.787 40.617 195.687 46.117 196.387 C 46.435 196.429 46.758 196.404 47.066 196.314 C 47.374 196.223 47.659 196.07 47.904 195.863 C 48.149 195.655 48.348 195.399 48.488 195.111 C 48.628 194.822 48.706 194.508 48.717 194.187 L 49.817 178.187" stroke="white" stroke-width="2" stroke-miterlimit="10" stroke-linecap="round"/>
  <path d="M 23.717 283.687 C 20.404 283.757 17.131 282.965 14.217 281.387" stroke="black" stroke-width="4" stroke-miterlimit="10" stroke-linecap="round"/>
  <path d="M 15.417 288.287 C 19.717 288.887 25.017 286.987 25.017 286.987" stroke="black" stroke-width="4" stroke-miterlimit="10" stroke-linecap="round"/>
  <path d="M 74.717 216.487 C 73.817 225.487 73.617 235.387 78.117 237.987 C 80.917 239.687 86.617 239.487 92.917 236.487 C 95.417 211.587 98.117 190.187 99.417 178.087 L 69.617 182.987 C 66.717 208.687 66.217 217.087 74.717 216.487 Z" fill="#15AD75"/>
  <path d="M 95.448 180.068 C 100.227 170.048 87.412 153.966 66.824 144.146 C 46.237 134.326 25.673 134.488 20.894 144.508 C 16.115 154.527 28.93 170.61 49.518 180.43 C 70.105 190.249 90.669 190.087 95.448 180.068 Z" fill="black"/>
  <path d="M 16.117 330.787 C 31.517 342.487 52.117 352.787 87.917 352.787 L 143.617 352.787 C 144.565 349.91 145.104 346.914 145.217 343.887 C 86.117 343.887 51.817 342.687 4.217 307.087 C 3.817 321.287 3.517 336.587 3.417 352.787 L 12.517 352.787 L 16.117 330.787 Z" fill="#57F287"/>
  <path d="M 20.117 280.487 C 22.717 290.587 29.817 298.287 36.017 297.687 C 42.217 297.087 42.417 291.287 40.017 281.587 C 39.417 278.987 38.917 276.487 38.417 273.887 C 36.617 264.687 32.117 260.687 26.617 261.187 C 21.117 261.687 17.417 270.487 20.117 280.487 Z" fill="white"/>
  <path d="M 20.117 280.487 C 22.717 290.587 29.817 298.287 36.017 297.687 C 42.217 297.087 42.417 291.287 40.017 281.587 C 39.417 278.987 38.917 276.487 38.417 273.887 C 36.617 264.687 32.117 260.687 26.617 261.187 C 21.117 261.687 17.417 270.487 20.117 280.487 Z" fill="white"/>
  <path d="M 36.417 280.587 C 37.417 284.987 36.717 288.887 35.017 289.187 C 33.317 289.487 31.217 287.187 30.517 281.687 C 29.817 276.187 30.217 273.187 31.917 273.187 C 33.617 273.187 35.517 276.087 36.417 280.587 Z" fill="black"/>
  <path d="M 94.317 313.887 C 94.465 313.896 94.613 313.867 94.748 313.805 C 94.883 313.742 95 313.647 95.089 313.528 C 95.178 313.41 95.236 313.271 95.259 313.124 C 95.281 312.977 95.267 312.827 95.217 312.687 C 93.217 302.687 87.117 301.287 75.817 303.887 C 64.517 306.487 60.017 307.487 57.817 308.287 C 55.617 309.087 56.617 309.587 71.517 311.887 C 79.052 313.154 86.676 313.823 94.317 313.887 Z" fill="#15AD75"/>
  <path d="M 144.717 338.787 C 133.617 338.887 115.117 338.687 96.917 337.487 C 63.117 335.187 32.017 322.587 4.417 300.087 L 4.417 301.887 C 32.017 324.187 63.017 336.687 96.817 338.887 C 113.817 340.087 131.017 340.287 142.317 340.287 L 145.017 340.287 L 144.717 338.787 Z" fill="black"/>
  <path d="M 38.417 273.987 C 36.617 264.787 32.117 260.787 26.617 261.287 C 21.117 261.787 19.617 265.887 19.217 271.787 C 25.408 273.785 31.934 274.533 38.417 273.987 Z" fill="#5865F2"/>
  <path d="M 180.317 193.687 L 147.017 212.287 C 147.587 212.814 148.304 213.154 149.073 213.262 C 149.842 213.369 150.625 213.238 151.317 212.887 C 153.217 212.087 157.817 207.887 159.617 206.887 C 161.417 205.887 166.517 203.887 169.017 202.887 C 172.1 201.666 174.995 200.016 177.617 197.987 C 179.817 196.187 180.617 195.487 180.317 193.687 Z" fill="black"/>
  <path d="M 98.117 124.587 C 92.017 120.787 91.717 120.887 88.317 114.787 C 84.917 108.687 80.617 105.687 75.617 104.987 L 81.817 149.887 C 94.817 153.687 102.817 147.087 104.617 140.587 C 106.417 134.087 104.317 128.387 98.117 124.587 Z" fill="#3442D9"/>
  <path d="M 92.017 130.487 C 90.317 123.187 85.817 114.687 80.517 108.287 C 78.618 105.975 77.271 103.26 76.578 100.349 C 75.885 97.438 75.864 94.407 76.517 91.487 L 78.717 81.487 C 80.264 74.546 79.439 67.288 76.376 60.871 C 73.312 54.454 68.186 49.249 61.817 46.087 C 58.162 44.288 54.184 43.234 50.117 42.987 C 42.464 42.426 34.894 44.87 29.013 49.799 C 23.132 54.728 19.403 61.754 18.617 69.387 C 18.451 70.68 18.384 71.984 18.417 73.287 L 18.417 77.587 L 18.617 95.587 C 18.834 103.674 17.12 111.695 13.617 118.987 C 12.163 121.88 11.056 124.935 10.317 128.087 L 59.217 180.087 C 82.517 176.187 97.117 153.687 92.017 130.487 Z" fill="#3442D9"/>
  <path d="M 59.317 180.087 C 82.517 176.187 97.117 153.687 92.017 130.487 C 90.417 123.587 86.317 115.587 81.417 109.387" stroke="black" stroke-width="2" stroke-miterlimit="10" stroke-linecap="round"/>
  <path d="M 76.417 131.987 C 81.017 124.387 82.817 125.387 91.017 127.587 C 97.617 129.287 105.217 142.787 95.117 149.587 C 85.017 156.387 64.417 152.287 76.417 131.987 Z" fill="#3442D9"/>
  <path d="M 53.62 109.574 C 54.542 108.869 54.69 107.516 53.952 106.55 C 53.214 105.585 51.869 105.374 50.948 106.078 C 50.027 106.783 49.878 108.136 50.616 109.101 C 51.354 110.067 52.699 110.278 53.62 109.574 Z" fill="black"/>
  <path d="M 66.216 110.356 C 67.137 109.652 67.286 108.298 66.548 107.333 C 65.81 106.368 64.465 106.156 63.543 106.861 C 62.622 107.565 62.473 108.919 63.211 109.884 C 63.949 110.849 65.294 111.061 66.216 110.356 Z" fill="black"/>
  <path d="M 64.917 108.787 C 75.617 117.587 71.217 123.887 79.817 136.887" stroke="white" stroke-width="3.00593" stroke-miterlimit="10" stroke-linecap="round"/>
  <path d="M 52.817 128.487 C 59.417 123.887 61.417 122.587 63.917 122.687 L 70.417 123.287 L 68.717 149.687 L 52.217 149.187 L 52.817 128.487 Z" fill="#FFC619"/>
  <path d="M 84.817 121.787 C 84.942 121.438 84.983 121.064 84.939 120.696 C 84.895 120.328 84.766 119.975 84.563 119.665 C 84.359 119.355 84.087 119.096 83.767 118.909 C 83.446 118.722 83.087 118.612 82.717 118.587 L 71.717 116.987 C 70.919 116.902 70.115 117.094 69.442 117.531 C 68.768 117.968 68.265 118.623 68.017 119.387 L 61.817 142.387 C 61.693 142.737 61.651 143.11 61.695 143.478 C 61.739 143.846 61.868 144.199 62.071 144.509 C 62.275 144.819 62.547 145.078 62.868 145.265 C 63.188 145.452 63.547 145.562 63.917 145.587 L 74.917 147.187 C 75.716 147.272 76.519 147.08 77.193 146.643 C 77.866 146.206 78.369 145.551 78.617 144.787 L 84.817 121.787 Z" fill="black"/>
  <path d="M 84.317 119.487 L 85.517 120.887 L 82.217 121.187 L 84.317 119.487 Z" fill="black"/>
  <path d="M 89.717 134.687 C 88.317 132.387 87.017 129.487 83.217 128.887 L 82.717 133.687 L 89.717 134.687 Z" fill="#FFC619"/>
  <path d="M 85.917 123.087 C 86.022 122.738 86.049 122.37 85.996 122.009 C 85.943 121.648 85.812 121.303 85.612 120.998 C 85.412 120.693 85.148 120.436 84.838 120.244 C 84.528 120.052 84.179 119.93 83.817 119.887 L 72.717 118.287 C 71.922 118.22 71.126 118.42 70.457 118.854 C 69.787 119.289 69.28 119.933 69.017 120.687 L 62.817 143.687 C 62.712 144.036 62.685 144.404 62.738 144.765 C 62.791 145.126 62.922 145.471 63.122 145.776 C 63.322 146.081 63.586 146.339 63.896 146.53 C 64.207 146.722 64.555 146.844 64.917 146.887 L 76.017 148.387 C 76.795 148.515 77.593 148.35 78.257 147.926 C 78.921 147.501 79.406 146.847 79.617 146.087 L 85.917 123.087 Z" fill="white"/>
  <path d="M 82.517 132.187 L 87.017 132.887 C 87.929 132.988 88.764 133.443 89.344 134.153 C 89.924 134.864 90.201 135.774 90.117 136.687 C 90.094 137.162 89.972 137.627 89.759 138.052 C 89.545 138.476 89.245 138.852 88.878 139.153 C 88.51 139.455 88.084 139.676 87.625 139.802 C 87.167 139.929 86.687 139.958 86.217 139.887 L 82.917 139.387 C 81.892 139.24 80.944 138.758 80.22 138.017 C 79.497 137.275 79.039 136.316 78.917 135.287 C 78.892 134.829 78.973 134.371 79.153 133.949 C 79.333 133.527 79.608 133.152 79.955 132.852 C 80.303 132.553 80.715 132.337 81.159 132.222 C 81.603 132.107 82.068 132.095 82.517 132.187 Z" fill="#FFC619"/>
  <path d="M 81.017 138.887 L 84.117 139.387 C 84.636 139.453 85.134 139.63 85.577 139.907 C 86.02 140.184 86.397 140.555 86.682 140.992 C 86.968 141.43 87.155 141.925 87.23 142.442 C 87.305 142.959 87.266 143.486 87.117 143.987 C 86.904 144.793 86.394 145.489 85.689 145.934 C 84.984 146.379 84.137 146.541 83.317 146.387 L 81.417 146.087 C 80.38 145.944 79.418 145.466 78.678 144.726 C 77.938 143.986 77.46 143.024 77.317 141.987 C 77.288 141.518 77.37 141.05 77.555 140.618 C 77.741 140.187 78.025 139.805 78.385 139.503 C 78.745 139.202 79.17 138.989 79.628 138.882 C 80.085 138.775 80.561 138.777 81.017 138.887 Z" fill="#FFC619"/>
  <path d="M 71.317 150.287 L 60.517 148.787 L 61.017 144.387 L 71.817 145.987 L 71.317 150.287 Z" fill="#FFC619"/>
  <path d="M 73.917 132.787 L 67.117 131.787 C 66.793 131.743 66.489 131.606 66.24 131.394 C 65.992 131.181 65.81 130.901 65.717 130.587 L 65.117 128.787 L 64.617 125.087 L 60.917 138.087 L 71.917 139.687 C 72.941 139.824 73.981 139.612 74.87 139.086 C 75.759 138.56 76.445 137.751 76.817 136.787 C 76.936 136.33 76.952 135.852 76.865 135.388 C 76.777 134.924 76.588 134.485 76.311 134.103 C 76.034 133.72 75.675 133.404 75.262 133.177 C 74.848 132.949 74.389 132.816 73.917 132.787 Z" fill="#FFC619"/>
  <path d="M 71.717 139.587 L 60.917 138.087 L 61.417 145.287 L 69.717 146.487 C 70.73 146.638 71.763 146.43 72.639 145.901 C 73.515 145.372 74.179 144.553 74.517 143.587 C 74.654 143.137 74.687 142.662 74.614 142.197 C 74.54 141.732 74.361 141.291 74.092 140.905 C 73.822 140.52 73.468 140.201 73.056 139.972 C 72.645 139.744 72.187 139.612 71.717 139.587 Z" fill="#FFC619"/>
  <path d="M 148.317 183.687 C 148.617 172.887 139.717 171.187 133.617 167.387 C 127.517 163.587 120.317 155.587 112.817 150.187 C 105.317 144.787 98.817 144.887 86.117 148.787 L 100.617 176.987 C 108.817 181.187 110.617 185.787 115.017 191.987 C 119.417 198.187 125.317 200.587 131.217 199.487 C 134.317 204.587 134.917 205.787 139.417 204.187 C 143.917 202.587 151.317 199.187 153.317 193.287 C 155.317 187.387 152.417 186.387 148.317 183.687 Z" fill="#66BCFF"/>
  <path d="M 140.817 200.787 C 137.017 199.887 135.517 197.787 133.117 194.487 L 131.017 191.687 C 120.717 189.587 116.517 184.087 114.217 180.087 C 113.117 178.187 111.117 176.687 109.217 175.287 C 107.317 173.887 105.417 172.387 104.317 170.587 C 103.489 169.239 102.754 167.836 102.117 166.387 C 101.317 164.287 100.617 162.887 99.317 162.487 C 98.017 162.087 95.817 162.887 93.717 163.787 C 91.81 164.706 89.794 165.378 87.717 165.787 C 87.545 165.819 87.368 165.785 87.22 165.692 C 87.072 165.6 86.964 165.455 86.917 165.287 C 86.911 165.106 86.968 164.927 87.077 164.782 C 87.186 164.636 87.341 164.533 87.517 164.487 C 89.474 164.158 91.364 163.517 93.117 162.587 C 95.517 161.587 97.517 160.687 99.617 161.287 C 101.717 161.887 102.417 163.687 103.317 165.887 C 104.217 168.087 104.517 168.487 105.317 169.887 C 106.64 171.566 108.228 173.018 110.017 174.187 C 112.017 175.787 114.117 177.387 115.317 179.487 C 117.617 183.587 121.617 188.487 131.517 190.487 L 131.717 190.487 L 131.917 190.687 C 132.817 191.787 133.517 192.887 134.217 193.787 C 136.417 196.887 137.817 198.787 141.017 199.587 C 141.104 199.58 141.19 199.595 141.269 199.631 C 141.348 199.668 141.416 199.724 141.466 199.795 C 141.517 199.865 141.548 199.948 141.557 200.034 C 141.566 200.121 141.552 200.208 141.517 200.287 C 141.524 200.374 141.509 200.461 141.473 200.539 C 141.436 200.618 141.38 200.686 141.31 200.737 C 141.239 200.787 141.156 200.818 141.07 200.827 C 140.984 200.836 140.897 200.822 140.817 200.787 Z" fill="#45AAF7"/>
  <path d="M 100.017 160.387 C 98.673 164.68 97.802 169.106 97.417 173.587" stroke="black" stroke-width="2" stroke-miterlimit="10" stroke-linecap="round"/>
  <path d="M 105.917 212.387 C 96.817 220.587 89.117 218.287 85.517 217.887 C 81.917 217.487 82.317 214.887 82.017 212.687 C 81.717 210.487 81.517 207.187 81.517 207.187 C 72.417 206.587 71.317 200.387 71.117 194.887 C 70.917 189.387 69.517 188.587 68.817 184.687 C 57.845 182.716 47.475 178.246 38.509 171.621 C 29.543 164.997 22.224 156.396 17.117 146.487 L 26.617 139.587 L 47.817 153.387 C 62.117 148.087 70.017 145.387 77.717 144.887 C 85.417 144.387 93.017 147.287 95.517 157.987 C 98.017 168.687 98.317 171.987 100.617 177.087 C 101.217 178.387 102.217 180.187 103.217 182.087 C 106.017 187.787 108.917 195.787 103.217 204.487 C 103.912 207.186 104.815 209.828 105.917 212.387 Z" fill="#8CD9FF"/>
  <path d="M 32.617 166.687 C 32.317 159.587 35.017 154.587 39.917 153.787 L 27.517 145.187 L 18.517 149.087 C 20.817 155.487 26.717 162.487 32.617 166.687 Z" fill="black"/>
  <path d="M 88.517 214.287 L 88.717 212.987 C 86.917 212.687 86.817 211.387 86.317 205.287 L 86.317 204.487 L 85.917 204.287 C 81.917 203.287 79.217 200.887 79.017 192.787 C 78.983 188.94 78.202 185.136 76.717 181.587 C 76.329 180.754 76.027 179.882 75.817 178.987 C 75.617 178.187 75.317 177.387 75.117 176.687 C 73.988 173.864 73.676 170.78 74.217 167.787 C 74.617 164.687 74.317 162.987 73.317 162.087 C 72.317 161.187 69.817 161.487 66.117 162.687 L 65.617 162.687 C 59.717 164.587 47.917 168.487 36.017 169.487 L 37.517 170.587 C 49.117 169.487 60.317 165.787 66.017 163.987 L 66.517 163.787 C 69.517 162.787 71.617 162.287 72.517 162.987 C 73.417 163.687 73.217 164.987 72.917 167.487 C 72.384 170.686 72.729 173.97 73.917 176.987 C 74.176 177.703 74.377 178.439 74.517 179.187 C 74.817 180.087 75.117 180.987 75.517 181.887 C 76.944 185.311 77.691 188.979 77.717 192.687 C 77.917 200.187 80.017 203.887 85.117 205.387 C 85.517 211.487 85.717 213.787 88.517 214.287 Z" fill="#66BCFF"/>
  <path d="M 53.017 127.087 C 50.117 124.587 47.917 124.787 44.417 126.287 C 40.717 122.887 35.917 122.387 30.917 124.087 C 25.917 125.787 18.217 128.087 13.717 129.287 C 13.466 129.381 13.193 129.4 12.931 129.343 C 12.669 129.285 12.429 129.154 12.239 128.965 C 12.05 128.775 11.919 128.535 11.862 128.273 C 11.804 128.011 11.824 127.738 11.917 127.487 L 15.217 115.487 C 4.517 123.487 1.017 140.587 4.417 149.887 C 7.817 159.187 22.617 159.087 27.317 156.487 C 32.017 153.887 33.617 153.087 39.017 154.087 C 44.417 155.087 48.617 155.787 55.717 150.387 L 59.917 148.987 C 61.517 139.887 60.117 133.287 53.017 127.087 Z" fill="#3442D9"/>
  <path d="M 53.017 127.087 C 50.117 124.587 47.917 124.787 44.417 126.287 C 40.717 122.887 35.917 122.387 30.917 124.087 C 25.917 125.787 18.217 128.087 13.717 129.287" stroke="black" stroke-width="2" stroke-miterlimit="10" stroke-linecap="round"/>
  <path d="M 44.417 126.287 C 47.404 128.6 49.891 131.494 51.73 134.793 C 53.569 138.093 54.721 141.731 55.117 145.487" stroke="black" stroke-width="2" stroke-miterlimit="10" stroke-linecap="round"/>
  <path d="M 74.717 123.287 C 74.762 123.149 74.777 123.003 74.76 122.858 C 74.743 122.714 74.695 122.575 74.618 122.452 C 74.542 122.328 74.44 122.222 74.319 122.142 C 74.198 122.062 74.061 122.009 73.917 121.987 L 72.917 121.987 C 72.639 121.926 72.348 121.976 72.106 122.125 C 71.863 122.274 71.688 122.511 71.617 122.787 L 70.717 126.087 C 70.671 126.233 70.659 126.387 70.682 126.538 C 70.705 126.689 70.762 126.832 70.848 126.958 C 70.935 127.083 71.05 127.187 71.183 127.262 C 71.316 127.336 71.465 127.379 71.617 127.387 L 72.617 127.387 C 72.88 127.421 73.146 127.358 73.367 127.211 C 73.587 127.064 73.747 126.843 73.817 126.587 L 74.717 123.287 Z" fill="#29CC7A"/>
  <path d="M 58.717 104.087 C 59.49 102.522 60.631 101.168 62.041 100.141 C 63.452 99.113 65.091 98.443 66.817 98.187 C 67.017 98.187 67.117 97.987 67.017 97.887 C 65.717 93.087 66.317 90.387 68.017 86.887 C 68.034 86.862 68.045 86.833 68.049 86.803 C 68.053 86.772 68.05 86.741 68.041 86.713 C 68.031 86.684 68.015 86.657 67.993 86.635 C 67.972 86.614 67.946 86.597 67.917 86.587 C 62.317 84.187 60.217 80.187 59.617 77.187 C 59.517 76.987 59.217 76.887 59.117 77.087 C 56.617 82.087 53.217 82.287 50.317 81.887 C 50.117 81.887 50.017 82.087 50.117 82.187 C 53.017 87.787 50.917 91.787 48.017 94.587 C 48.002 94.626 47.994 94.668 47.996 94.711 C 47.998 94.753 48.009 94.794 48.028 94.832 C 48.047 94.87 48.073 94.903 48.106 94.93 C 48.138 94.956 48.176 94.976 48.217 94.987 C 53.817 95.987 56.817 99.687 58.217 103.987 C 58.317 104.187 58.617 104.287 58.717 104.087 Z" fill="#FFC619"/>
  <path d="M 71.717 139.587 L 66.017 138.787" stroke="black" stroke-width="2" stroke-miterlimit="10" stroke-linecap="round"/>
  <path d="M 82.117 139.287 L 85.317 139.787" stroke="black" stroke-width="2" stroke-miterlimit="10" stroke-linecap="round"/>
  <path d="M 59.417 76.987 C 61.917 71.387 61.717 67.487 61.017 65.287" stroke="black" stroke-width="2" stroke-miterlimit="10" stroke-linecap="round"/>
  <path d="M 67.417 86.787 C 68.977 87.026 70.571 86.927 72.089 86.495 C 73.608 86.064 75.016 85.311 76.217 84.287" stroke="black" stroke-width="2" stroke-miterlimit="10" stroke-linecap="round"/>
  <path d="M 58.717 104.087 C 58.725 104.831 58.624 105.573 58.417 106.287" stroke="black" stroke-width="2" stroke-miterlimit="10" stroke-linecap="round"/>
  <path d="M 48.517 94.687 C 44.817 97.287 39.217 96.887 35.317 95.687" stroke="black" stroke-width="2" stroke-miterlimit="10" stroke-linecap="round"/>
  <path d="M 50.317 81.887 C 48.917 78.987 46.317 75.687 43.917 74.587" stroke="black" stroke-width="2" stroke-miterlimit="10" stroke-linecap="round"/>
  <path d="M 67.017 97.887 C 68.307 98.576 69.687 99.08 71.117 99.387" stroke="black" stroke-width="2" stroke-miterlimit="10" stroke-linecap="round"/>
  <path d="M 56.317 87.187 C 58.017 93.787 60.217 93.387 61.217 91.387 C 62.217 89.387 62.917 86.887 64.517 87.087 C 66.117 87.287 65.717 90.087 63.817 94.087 C 61.917 98.087 58.817 98.987 55.917 95.487 C 53.017 91.987 52.917 88.587 52.817 86.187 C 52.717 83.787 55.217 83.187 56.317 87.187 Z" fill="#C40655"/>
  <path d="M 52.317 107.987 C 53.517 121.787 46.517 128.387 44.317 142.087" stroke="white" stroke-width="3.00593" stroke-miterlimit="10" stroke-linecap="round"/>
  <path d="M 68.017 184.787 C 66.217 178.887 65.417 168.087 70.317 158.587" stroke="black" stroke-width="2" stroke-miterlimit="10" stroke-linecap="round"/>
  <path d="M 66.917 170.087 C 65.789 167.895 65.238 165.451 65.317 162.987" stroke="black" stroke-width="2" stroke-miterlimit="10" stroke-linecap="round"/>
  <path d="M 17.617 128.187 L 10.217 130.587" stroke="black" stroke-width="2" stroke-miterlimit="10" stroke-linecap="round"/>
  <path d="M 91.117 127.287 L 96.117 128.687" stroke="black" stroke-width="2" stroke-miterlimit="10" stroke-linecap="round"/>
  <path d="M 180.317 193.587 C 179.768 194.389 179.131 195.127 178.417 195.787 C 175.217 198.987 167.917 202.587 164.017 204.087 C 161.05 205.026 158.321 206.595 156.017 208.687 C 153.117 210.987 149.517 214.087 147.017 212.287 C 143.868 209.388 140.99 206.208 138.417 202.787 C 138.271 202.608 138.176 202.393 138.141 202.164 C 138.105 201.936 138.132 201.702 138.217 201.487 C 139.617 197.487 144.117 191.787 150.617 188.787 C 150.832 188.702 151.066 188.675 151.294 188.711 C 151.523 188.746 151.738 188.841 151.917 188.987 C 155.717 191.687 158.017 192.387 161.117 192.287 C 164.217 192.187 170.217 190.187 175.117 188.787 C 180.017 187.387 180.117 189.587 180.317 193.587 Z" fill="#FFC619"/>
  <path d="M 141.217 206.287 C 143.003 208.425 144.941 210.43 147.017 212.287 C 149.517 214.087 153.117 210.987 156.017 208.687 C 158.321 206.595 161.05 205.026 164.017 204.087 C 167.917 202.587 175.217 198.987 178.417 195.787 C 179.131 195.127 179.768 194.389 180.317 193.587 C 180.117 189.587 179.217 187.587 175.117 188.787 C 171.017 189.987 168.717 190.987 165.717 191.687 C 164.825 191.926 164.016 192.408 163.38 193.078 C 162.745 193.749 162.307 194.583 162.117 195.487 C 162.017 196.587 161.817 197.687 161.617 198.987 C 156.217 197.887 151.017 199.687 149.917 206.787 C 149.917 206.787 145.317 204.287 141.217 206.287 Z" fill="#FFE75C"/>
  <path d="M 178.417 195.787 L 180.317 193.687 C 180.444 193.476 180.513 193.234 180.517 192.987 C 180.425 192.229 180.222 191.488 179.917 190.787 C 179.117 192.287 177.717 193.787 174.617 196.087 C 169.717 199.687 164.217 200.987 160.917 202.087 C 157.896 203.213 155.139 204.949 152.817 207.187 C 150.992 209.249 148.587 210.712 145.917 211.387 L 147.017 212.287 C 149.517 214.087 153.117 210.987 156.017 208.687 C 158.321 206.595 161.05 205.026 164.017 204.087 C 167.917 202.587 175.217 198.987 178.417 195.787 Z" fill="white"/>
  <path d="M 117.417 200.287 C 112.317 198.887 107.117 201.287 102.517 209.987 C 101.217 208.987 98.017 207.887 93.217 208.787 C 88.417 209.687 86.617 211.787 85.817 213.387 C 85.341 214.311 85.2 215.371 85.417 216.387 C 85.717 217.687 86.117 219.387 86.717 222.187 C 87.617 226.487 87.117 230.287 89.517 230.687 L 123.117 206.487 C 123.117 206.487 124.017 202.087 117.417 200.287 Z" fill="#FFC619"/>
  <path d="M 117.417 200.287 C 112.317 198.887 107.117 201.287 102.517 209.987 C 101.879 211.289 101.311 212.624 100.817 213.987 C 95.517 213.487 93.017 215.787 92.117 220.887 C 92.117 220.887 88.617 218.487 86.517 221.287 C 86.617 221.587 86.617 221.887 86.717 222.187 C 87.617 226.487 87.117 230.287 89.517 230.687 L 123.117 206.487 C 123.117 206.487 124.017 202.087 117.417 200.287 Z" fill="#FFE75C"/>
  <path d="M 123.117 205.087 L 120.617 202.787 C 116.317 202.087 112.717 201.987 108.917 206.287 C 105.117 210.587 102.617 215.287 98.617 218.087 C 92.917 222.287 88.117 223.987 87.417 227.087 C 86.717 230.187 88.117 230.487 89.517 230.687 L 123.117 206.487 C 123.24 206.029 123.24 205.546 123.117 205.087 Z" fill="white"/>
  <path d="M 118.817 201.287 L 121.217 201.987 C 121.426 202.021 121.624 202.101 121.797 202.222 C 121.971 202.344 122.114 202.503 122.217 202.687 C 123.144 204.253 123.53 206.08 123.317 207.887 L 114.517 206.287 C 117.417 204.887 118.417 203.587 118.117 201.887 C 118.087 201.793 118.085 201.693 118.112 201.598 C 118.139 201.503 118.193 201.419 118.268 201.355 C 118.343 201.29 118.435 201.25 118.532 201.238 C 118.63 201.226 118.729 201.243 118.817 201.287 Z" fill="white"/>
  <path d="M 89.717 230.787 C 98.317 232.487 102.117 229.787 105.817 225.987 C 107.352 224.289 109.139 222.839 111.117 221.687 C 116.217 218.787 120.217 215.687 122.917 210.787 C 125.617 205.887 117.317 202.687 111.917 207.187 C 106.517 211.687 106.217 216.987 95.517 223.587 C 88.217 228.187 87.217 230.287 89.717 230.787 Z" fill="black"/>
  <path d="M 90.94 215.18 C 90.99 214.188 90.539 213.358 89.932 213.327 C 89.326 213.296 88.793 214.076 88.743 215.069 C 88.692 216.062 89.144 216.892 89.75 216.922 C 90.357 216.953 90.89 216.173 90.94 215.18 Z" fill="white"/>
  <path d="M 180.617 192.387 C 180.441 191.373 180.104 190.394 179.617 189.487 C 179.517 189.387 179.417 189.287 179.317 189.387 L 179.217 189.387 C 179.017 189.387 179.017 189.487 179.017 189.587 C 179.517 191.687 179.717 194.087 178.617 195.487 C 180.917 193.687 180.717 192.687 180.617 192.387 Z" fill="white"/>
  <path d="M 144.941 203.02 C 145.858 202.815 146.347 201.513 146.033 200.111 C 145.72 198.71 144.723 197.74 143.807 197.945 C 142.891 198.15 142.402 199.452 142.715 200.853 C 143.028 202.254 144.025 203.224 144.941 203.02 Z" fill="white"/>
  <path d="M 219.916 352.787 C 262.216 352.787 296.916 335.187 342.516 294.987 C 388.116 254.787 404.116 241.587 417.016 229.087 C 429.916 216.587 429.016 208.487 422.316 192.487 C 415.616 176.487 411.216 178.787 411.216 178.787 C 410.416 165.787 397.716 144.287 383.716 126.987 C 369.716 109.687 361.316 112.487 345.916 112.487 C 330.516 112.487 325.416 116.687 318.516 135.087 C 311.616 153.487 294.416 169.087 261.916 174.787 C 229.416 180.487 211.616 180.187 210.716 196.487 C 209.816 212.787 210.716 240.887 196.316 263.087 C 178.415 271.739 159.596 278.347 140.216 282.787 C 128.816 285.387 126.416 292.887 125.316 302.687 C 124.216 312.487 128.216 317.787 130.116 320.887 C 126.216 324.587 127.016 326.187 128.916 334.887 C 129.716 338.387 130.616 341.887 131.416 344.987 C 132.068 347.24 133.435 349.22 135.311 350.627 C 137.187 352.034 139.471 352.792 141.816 352.787 L 219.916 352.787 Z" fill="#66BCFF"/>
  <path d="M 125.316 302.687 C 124.216 312.487 128.216 317.787 130.116 320.887 L 208.416 329.887 L 284.216 318.787 C 284.216 318.787 334.216 278.487 327.416 265.087 C 320.616 251.687 306.316 264.287 287.216 277.287 C 268.116 290.287 248.316 291.487 225.616 288.187 C 202.916 284.887 175.416 275.187 140.216 282.787 C 128.816 285.387 126.416 292.887 125.316 302.687 Z" fill="#45AAF7"/>
  <path d="M 335.516 258.387 C 335.616 241.087 335.016 236.987 340.816 237.787 C 346.616 238.587 356.116 240.487 356.116 240.487 L 345.816 256.787 L 335.516 258.387 Z" fill="#A3E1FF"/>
  <path d="M 365.916 231.487 C 365.916 223.087 365.216 217.587 367.516 216.387 C 369.816 215.187 372.516 216.687 377.316 220.987 C 382.116 225.287 365.916 231.487 365.916 231.487 Z" fill="#A3E1FF"/>
  <path d="M 135.116 318.787 C 133.816 308.687 134.116 300.687 136.816 298.687 C 139.516 296.687 142.116 301.287 144.016 305.287 C 146.438 310.363 149.46 315.13 153.016 319.487 L 135.116 318.787 Z" fill="#A3E1FF"/>
  <path d="M 221.916 320.987 C 225.216 307.487 228.016 304.187 230.816 303.987 C 233.616 303.787 235.016 310.187 239.016 319.287 L 232.416 322.387 L 221.916 320.987 Z" fill="#A3E1FF"/>
  <path d="M 401.916 197.487 C 359.416 238.587 334.016 261.187 298.416 287.687 C 262.816 314.187 246.916 321.087 217.016 321.087 C 187.116 321.087 167.916 304.287 130.116 320.887 C 126.216 324.587 127.016 326.187 128.916 334.887 C 129.716 338.387 130.616 341.887 131.416 344.987 C 132.068 347.24 133.435 349.22 135.311 350.627 C 137.187 352.034 139.471 352.792 141.816 352.787 L 219.916 352.787 C 262.216 352.787 296.916 335.187 342.516 294.987 C 388.116 254.787 404.116 241.587 417.016 229.087 C 429.916 216.587 429.016 208.487 422.316 192.487 C 415.616 176.487 411.216 178.787 411.216 178.787 C 411.216 183.287 411.516 188.087 401.916 197.487 Z" fill="white"/>
  <path d="M 422.816 193.587 C 422.716 199.387 419.116 205.987 409.316 214.987 C 390.116 232.487 350.416 268.287 323.116 291.487 C 293.216 317.187 265.416 338.387 228.416 338.387 C 215.516 338.387 201.416 335.687 187.716 333.087 C 163.616 328.487 140.716 324.187 129.116 335.787 C 129.216 336.387 129.416 337.087 129.516 337.687 C 140.316 325.787 163.216 330.087 187.416 334.687 C 201.216 337.287 215.416 339.987 228.416 339.987 C 265.916 339.987 295.116 317.587 324.116 292.787 C 351.416 269.487 391.216 233.587 410.316 216.187 C 417.516 209.587 422.716 203.487 424.016 196.787 L 422.816 193.587 Z" fill="#FFE75C"/>
  <path d="M 310.916 320.387 L 297.016 288.787 C 291.683 292.72 286.783 296.22 282.316 299.287 L 281.116 300.687 C 286.316 298.487 291.516 301.387 291.916 310.287 C 292.016 315.087 292.016 324.787 292.016 332.587 C 298.533 328.866 304.842 324.794 310.916 320.387 Z" fill="black"/>
  <path d="M 147.616 344.787 C 139.616 344.887 135.716 348.087 138.916 351.187 C 140.081 352.269 141.627 352.844 143.216 352.787 L 211.916 352.787 C 177.716 352.787 174.216 344.387 147.616 344.787 Z" fill="black"/>
  <path d="M 383.216 168.287 C 372.916 181.487 369.316 186.687 373.616 200.787 C 375.416 206.887 377.716 213.387 379.616 218.787 L 401.916 197.487 C 411.516 188.087 411.216 183.287 411.216 178.787 C 410.516 167.687 401.216 150.387 389.716 134.787 C 395.516 143.187 393.516 155.087 383.216 168.287 Z" fill="#45AAF7"/>
  <path d="M 369.516 151.487 C 375.416 128.987 374.816 113.987 360.316 112.487 C 356.016 112.087 351.416 112.487 345.916 112.487 C 330.416 112.487 325.416 116.687 318.516 135.087 C 311.616 153.487 294.416 169.087 261.916 174.787 C 229.416 180.487 211.616 180.187 210.716 196.487 C 209.816 212.787 210.716 240.887 196.316 263.087 C 194.216 266.787 196.716 269.287 226.616 269.287 C 256.516 269.287 274.316 267.487 279.316 254.987 C 284.316 242.487 291.516 215.187 295.116 204.387 C 298.716 193.587 298.116 187.387 318.016 182.887 C 337.916 178.387 363.916 173.187 369.516 151.487 Z" fill="#8CD9FF"/>
  <path d="M 300.416 180.087 C 316.416 173.487 327.716 174.987 344.716 166.887 C 361.716 158.787 363.916 152.787 366.016 141.687 C 368.116 130.587 369.616 117.487 359.316 116.587 C 349.016 115.687 339.716 116.087 335.016 117.687 C 330.316 119.287 329.116 122.187 324.016 132.687 C 318.916 143.187 316.416 158.787 293.516 168.987 L 300.416 180.087 Z" fill="black"/>
  <path d="M 165.616 313.787 C 165.716 318.887 167.116 326.187 169.916 326.887 C 172.716 327.587 174.016 321.887 176.916 314.787 C 173.816 311.587 165.616 308.287 165.616 313.787 Z" fill="#A3E1FF"/>
  <path d="M 293.216 290.587 C 290.738 290.689 288.314 291.338 286.116 292.487 C 276.816 297.187 276.916 301.187 277.216 302.587 C 289.916 294.887 295.516 303.387 299.116 328.287 C 300.516 338.087 303.016 342.887 310.216 342.887 C 319.016 342.887 324.216 336.687 323.616 320.687 C 323.481 317.668 323.147 314.662 322.616 311.687 C 320.116 298.287 314.916 284.787 302.316 284.787 C 300.426 284.881 298.594 285.465 296.998 286.482 C 295.402 287.499 294.099 288.914 293.216 290.587 Z" fill="#FF78B9"/>
  <path d="M 387.116 245.487 C 381.716 250.287 376.316 250.687 375.116 246.487 C 373.916 242.287 377.216 234.887 382.616 230.187 L 392.016 221.887 C 397.416 217.087 402.816 216.687 404.016 220.887 C 405.216 225.087 401.816 232.487 396.516 237.187 L 387.116 245.487 Z" fill="#FFA8D2"/>
  <path d="M 293.216 290.587 C 301.616 291.487 308.016 295.387 310.716 305.987 C 312.616 313.487 312.016 322.287 313.316 329.887" stroke="black" stroke-width="2" stroke-linecap="round" stroke-linejoin="round"/>
  <path d="M 388.916 170.587 L 386.416 173.987 C 378.516 184.287 375.616 188.087 384.016 214.587 L 385.316 213.387 C 377.416 188.387 380.016 184.887 387.616 174.987 L 390.216 171.587 C 396.416 163.187 398.716 154.887 398.516 147.787 L 396.716 144.987 C 397.716 152.287 395.716 161.387 388.916 170.587 Z" fill="#5865F2"/>
  <path d="M 275.016 308.987 C 275.816 304.487 274.816 302.287 272.516 302.587 C 270.216 302.887 268.216 304.287 266.016 309.387 C 267.816 328.887 273.016 321.287 275.016 308.987 Z" fill="#A3E1FF"/>
  <path d="M 357.218 119.787 L 372.918 117.787 C 375.418 117.487 376.318 111.787 377.418 104.587 C 378.518 97.387 377.218 84.287 377.218 84.287 L 361.018 89.187 L 357.218 119.787 Z" fill="#FF78B9"/>
  <path d="M 400.818 79.587 C 394.118 72.087 360.118 45.887 360.118 45.887 L 352.118 57.387 C 352.118 57.387 363.418 69.887 371.518 78.287 C 355.118 79.587 325.518 83.487 325.518 83.487 C 304.518 79.287 295.618 77.287 295.618 77.287 L 317.218 56.787 L 309.318 44.987 C 309.318 44.987 288.718 57.587 277.118 66.687 C 265.518 75.787 263.618 86.987 274.618 95.487 C 285.618 103.987 289.318 106.587 289.318 106.587 L 360.218 113.887 C 381.018 108.087 393.418 101.787 400.918 95.287 C 408.418 88.787 407.518 87.087 400.818 79.587 Z" fill="#FFC619"/>
  <path d="M 283.418 76.187 C 285.918 76.587 290.318 77.787 290.318 77.787" stroke="black" stroke-width="2" stroke-linecap="round" stroke-linejoin="round"/>
  <path d="M 355.818 42.287 L 348.718 54.187 L 356.718 62.387 C 359.318 59.487 361.918 54.387 361.118 46.687 L 355.818 42.287 Z" fill="black"/>
  <path d="M 309.818 94.287 C 300.218 82.487 296.818 77.387 294.818 71.487 C 293.418 67.187 301.918 69.787 312.918 73.087 C 323.918 76.387 322.218 79.487 309.818 94.287 Z" fill="#FF78B9"/>
  <path d="M 296.018 76.987 C 285.918 88.287 285.718 102.087 286.818 121.387 C 286.818 121.387 269.418 138.887 271.918 154.187 C 274.418 169.487 298.218 176.087 325.318 175.787 C 347.118 175.587 349.518 170.487 351.518 160.187 C 352.718 153.487 353.618 145.787 354.218 139.787 C 354.823 133.48 356.409 127.305 358.918 121.487 C 372.318 90.387 361.518 79.187 361.518 79.187 L 325.318 82.087 L 296.018 76.987 Z" fill="#FF78B9"/>
  <path d="M 304.018 60.787 C 295.518 67.087 297.318 76.687 309.318 89.887 L 314.718 95.287 L 349.618 89.587 C 360.818 75.687 358.618 66.387 354.518 60.587 C 360.218 51.187 360.618 44.687 360.518 38.887 C 360.418 29.087 351.518 13.687 329.118 13.887 C 316.918 13.987 306.118 18.787 302.218 34.287 C 300.818 39.687 300.518 48.487 304.018 60.787 Z" fill="#FFE75C"/>
  <path d="M 347.218 26.587 C 347.485 26.586 347.75 26.641 347.994 26.748 C 348.239 26.856 348.458 27.014 348.637 27.212 C 348.817 27.41 348.952 27.644 349.035 27.898 C 349.118 28.153 349.146 28.421 349.118 28.687 L 347.918 42.187 C 347.563 45.215 346.139 48.017 343.903 50.088 C 341.666 52.16 338.764 53.365 335.718 53.487 L 333.018 53.487 C 329.834 53.517 326.748 52.387 324.337 50.307 C 321.926 48.227 320.355 45.341 319.918 42.187 L 319.418 37.687 C 319.345 37.157 319.081 36.672 318.676 36.322 C 318.271 35.972 317.753 35.782 317.218 35.787 C 316.667 35.785 316.136 35.989 315.729 36.359 C 315.322 36.729 315.068 37.239 315.018 37.787 L 314.418 44.987 C 314.196 47.366 313.104 49.58 311.351 51.204 C 309.598 52.828 307.307 53.748 304.918 53.787 C 303.485 53.841 302.058 53.584 300.735 53.032 C 299.412 52.481 298.224 51.648 297.254 50.593 C 296.284 49.537 295.555 48.284 295.117 46.919 C 294.679 45.554 294.543 44.11 294.718 42.687 L 295.918 29.087 C 295.989 28.547 296.248 28.05 296.651 27.684 C 297.054 27.318 297.574 27.106 298.118 27.087 L 347.218 26.587 Z" fill="black"/>
  <path d="M 348.518 27.087 L 360.518 38.887 L 360.518 41.287 L 348.618 32.987 L 348.518 27.087 Z" fill="black"/>
  <path d="M 361.518 79.087 C 355.889 73.77 349.261 69.623 342.018 66.887 C 335.518 64.587 334.018 63.987 332.518 67.687 C 331.018 71.387 329.418 75.587 328.818 76.987 C 328.218 78.387 321.118 83.187 316.818 86.787 C 312.518 90.387 308.018 98.087 308.018 98.087 L 353.618 101.587 L 361.518 79.087 Z" fill="#FF78B9"/>
  <path d="M 371.318 78.087 L 377.218 84.287 C 374.518 92.687 372.818 103.187 371.818 114.887 L 348.518 116.587 L 361.518 79.187 L 371.318 78.087 Z" fill="#FF78B9"/>
  <path d="M 296.018 76.987 L 291.718 76.187 C 291.058 76.091 290.386 76.14 289.747 76.33 C 289.108 76.52 288.518 76.847 288.018 77.287 C 283.123 81.742 279.821 87.678 278.618 94.187 C 277.318 101.787 277.718 102.587 286.518 107.287 C 292.418 110.487 298.518 96.487 301.818 86.987 C 302.201 85.951 302.351 84.844 302.256 83.743 C 302.162 82.643 301.826 81.577 301.272 80.622 C 300.717 79.667 299.959 78.845 299.051 78.217 C 298.143 77.589 297.107 77.169 296.018 76.987 Z" fill="#FF78B9"/>
  <path d="M 300.218 154.787 C 292.562 145.864 283.943 137.815 274.518 130.787 L 252.118 142.487 L 259.418 164.287 C 259.418 164.287 265.418 171.887 271.018 177.887 C 276.618 183.887 286.718 184.087 305.318 185.687 C 312.318 173.187 309.118 165.287 300.218 154.787 Z" fill="#2835BD"/>
  <path d="M 263.718 163.887 L 265.718 154.187" stroke="black" stroke-width="2" stroke-linecap="round" stroke-linejoin="round"/>
  <path d="M 342.318 150.687 C 340.518 145.787 335.018 141.887 310.418 140.687 L 301.318 131.487 L 276.018 150.787 C 285.018 165.987 295.218 184.287 305.318 185.687 C 315.418 187.087 324.518 186.387 336.518 179.087 C 344.118 174.387 345.118 172.187 345.318 168.187 C 345.165 162.24 344.155 156.346 342.318 150.687 Z" fill="#3442D9"/>
  <path d="M 369.518 151.487 C 363.918 173.187 337.918 178.287 318.018 182.887 C 300.018 186.987 298.818 192.387 296.118 201.387 L 282.518 197.787 L 282.518 183.787 L 300.418 180.087 C 316.418 173.487 327.718 174.987 344.718 166.887 C 361.718 158.787 363.918 152.787 366.018 141.687 C 367.318 135.187 368.318 127.787 366.718 122.687 L 372.418 123.487 C 373.918 130.287 372.618 139.887 369.518 151.487 Z" fill="#8CD9FF"/>
  <path d="M 217.318 172.987 C 215.992 173.79 214.975 175.016 214.431 176.467 C 213.886 177.918 213.847 179.51 214.318 180.987 C 217.218 190.187 218.518 197.287 215.818 219.687 C 213.118 242.087 208.618 254.487 206.518 259.087 C 206.389 259.36 206.327 259.66 206.336 259.962 C 206.346 260.263 206.428 260.558 206.574 260.822 C 206.721 261.086 206.928 261.311 207.179 261.479 C 207.43 261.647 207.718 261.753 208.018 261.787 C 219.218 263.487 236.018 263.287 254.418 260.887 C 257.522 260.48 260.463 259.256 262.94 257.341 C 265.417 255.426 267.342 252.889 268.518 249.987 C 273.248 238.249 277.125 226.184 280.118 213.887 C 286.818 186.287 286.018 186.787 300.418 180.087 C 299.318 170.187 299.418 160.687 288.618 159.287 C 276.018 157.687 262.218 163.887 242.418 169.287 C 237.918 165.287 233.818 163.287 217.318 172.987 Z" fill="#45AAF7"/>
  <path d="M 271.518 160.787 C 263.218 162.787 253.818 166.187 242.418 169.287 C 239.118 166.387 236.018 164.487 228.118 167.587 C 227.825 168.335 227.591 169.104 227.418 169.887 C 223.818 187.787 217.018 217.087 237.418 215.487 C 257.818 213.887 260.118 201.787 259.518 190.787 C 258.918 179.787 257.618 173.687 259.518 170.487 C 261.418 167.287 268.118 161.687 271.518 160.787 Z" fill="#287CEB"/>
  <path d="M 289.818 186.087 C 288.418 174.387 287.518 168.787 284.318 166.587 C 281.118 164.387 280.018 165.087 275.818 165.987 C 271.618 166.887 266.318 168.487 259.518 170.487 C 246.818 174.187 231.018 178.887 225.018 178.487 L 223.018 178.187 C 224.418 176.687 233.018 173.587 238.718 171.487 L 242.718 169.987 C 242.812 169.964 242.9 169.922 242.977 169.864 C 243.054 169.805 243.118 169.731 243.165 169.647 C 243.212 169.562 243.241 169.469 243.25 169.372 C 243.259 169.276 243.248 169.179 243.218 169.087 L 242.418 169.287 L 241.718 168.687 L 238.118 169.987 C 224.818 174.887 221.018 176.587 221.318 178.487 C 221.618 180.387 223.118 179.987 224.918 180.087 C 231.118 180.487 246.418 175.987 260.018 171.987 C 266.718 169.987 272.518 168.287 276.118 167.587 C 279.718 166.887 282.018 166.887 283.418 167.887 C 284.818 168.887 287.018 175.887 288.318 187.687 L 289.818 186.087 Z" fill="black"/>
  <path d="M 294.918 40.687 L 313.918 26.887 L 306.818 26.987 L 295.418 35.287 L 294.918 40.687 Z" fill="#5865F2"/>
  <path d="M 299.518 52.387 C 301.155 53.342 303.023 53.826 304.918 53.787 C 307.307 53.748 309.598 52.828 311.351 51.204 C 313.104 49.58 314.196 47.366 314.418 44.987 L 314.718 41.387 L 299.518 52.387 Z" fill="#5865F2"/>
  <path d="M 347.218 26.587 L 339.318 26.587 L 319.818 40.687 L 319.818 42.187 C 320.043 43.733 320.551 45.225 321.318 46.587 L 348.418 27.087 C 348.081 26.798 347.661 26.623 347.218 26.587 Z" fill="#5865F2"/>
  <path d="M 347.918 42.187 L 348.518 35.687 L 326.318 51.787 C 328.368 52.921 330.675 53.507 333.018 53.487 L 335.718 53.487 C 338.764 53.365 341.666 52.16 343.903 50.088 C 346.139 48.016 347.563 45.215 347.918 42.187 Z" fill="#5865F2"/>
  <path d="M 313.418 54.987 C 316.086 54.405 318.849 54.405 321.518 54.987" stroke="black" stroke-width="2" stroke-linecap="round" stroke-linejoin="round"/>
  <path d="M 229.618 134.387 C 229.718 134.687 229.818 134.887 229.918 134.887 C 230.018 134.887 230.118 134.787 230.218 134.487" fill="black"/>
  <path d="M 246.618 129.787 C 235.818 133.987 220.718 142.787 207.718 150.087 C 200.518 154.087 198.318 156.487 202.118 163.787 C 205.918 171.087 213.118 178.087 218.518 182.887 C 223.918 187.687 226.918 185.687 230.918 183.087 L 259.418 164.287 L 274.518 130.787 C 268.218 126.387 257.518 125.487 246.618 129.787 Z" fill="#2835BD"/>
  <path d="M 216.118 169.487 C 220.718 170.387 220.718 170.887 226.418 167.187 C 232.118 163.487 260.818 146.187 263.718 144.287" stroke="#4150F2" stroke-width="2" stroke-miterlimit="10" stroke-linecap="round"/>
  <path d="M 288.318 119.187 C 283.818 115.887 280.718 115.687 256.518 113.687 C 232.318 111.687 221.018 109.187 218.218 113.587 C 215.418 117.987 217.918 128.987 220.718 137.287 C 223.518 145.587 225.118 148.287 229.018 148.587 C 232.918 148.887 269.318 150.087 276.018 150.787 L 279.318 156.387 L 310.418 140.687 C 310.418 140.687 292.718 122.487 288.318 119.187 Z" fill="#3442D9"/>
  <path d="M 211.518 162.787 C 205.518 157.887 203.118 156.987 203.818 160.287 C 204.518 163.587 208.318 168.487 212.418 172.887 C 216.518 177.287 221.218 181.787 222.818 181.487 C 224.418 181.187 222.518 178.187 220.018 173.387 C 217.883 169.346 214.998 165.749 211.518 162.787 Z" fill="black"/>
  <path d="M 218.118 170.087 L 213.118 173.587 L 209.018 176.487 C 204.118 180.087 206.118 182.987 206.518 186.387 C 206.918 189.787 205.818 192.287 203.518 192.287 C 201.218 192.287 197.818 182.687 195.418 178.087 C 193.018 173.487 185.118 169.787 181.018 166.287 C 179.318 164.787 178.918 162.287 181.018 161.487 C 180.118 160.187 178.918 156.887 181.918 155.887 C 184.918 154.887 189.418 160.387 191.918 162.087 C 194.418 163.787 197.518 165.387 199.818 164.387 C 201.399 163.683 202.935 162.881 204.418 161.987 L 207.818 159.887 L 211.518 162.787 C 214.029 164.92 216.248 167.374 218.118 170.087 Z" fill="#FF78B9"/>
  <path d="M 369.518 151.487 C 363.918 173.187 337.918 178.287 318.018 182.887 C 298.118 187.487 298.718 193.487 295.118 204.387 C 291.518 215.287 284.318 242.587 279.318 254.987 L 345.818 215.887 L 373.018 164.287 L 369.518 151.487 Z" fill="#66BCFF"/>
  <path d="M 292.418 239.287 C 290.218 246.987 288.418 252.787 287.418 256.987 C 286.418 261.187 291.018 260.787 295.918 259.387 C 300.818 257.987 302.918 255.887 302.118 251.587 C 301.318 247.287 294.818 230.587 292.418 239.287 Z" fill="white"/>
  <path d="M 211.518 162.787 L 207.818 159.887 C 206.918 159.787 206.418 159.787 206.018 160.087 C 205.618 160.387 205.718 160.587 205.818 161.087 C 208.118 160.687 213.818 164.787 214.018 172.887 C 215.318 173.487 216.018 173.887 216.518 173.587 C 217.018 173.287 217.718 171.887 218.118 170.087 C 216.248 167.374 214.029 164.92 211.518 162.787 Z" fill="black"/>
  <path d="M 202.718 187.887 C 201.718 184.087 198.318 176.287 195.418 173.187 C 192.518 170.087 187.918 162.787 186.418 160.387 C 184.918 157.987 181.018 154.987 180.118 157.687 C 179.923 159.022 180.245 160.381 181.018 161.487 C 178.918 162.287 179.318 164.787 181.018 166.287 C 185.118 169.787 192.818 172.987 195.418 178.087 C 198.018 183.187 199.818 190.587 202.618 192.087 L 203.418 192.287 C 203.918 192.187 203.618 190.787 202.718 187.887 Z" fill="#DE3A93"/>
  <path d="M 317.118 7.887 C 315.851 11.459 315.711 15.333 316.718 18.987 C 316.877 19.63 317.252 20.198 317.78 20.599 C 318.307 20.999 318.956 21.207 319.618 21.187 L 325.718 21.187 C 326.397 21.19 327.069 21.049 327.69 20.773 C 328.31 20.498 328.865 20.093 329.318 19.587 C 333.018 15.687 339.718 14.687 344.918 16.887 L 348.018 12.387 C 348.35 11.946 348.513 11.401 348.476 10.85 C 348.439 10.299 348.206 9.78 347.818 9.387 C 344.786 6.522 341.168 4.349 337.214 3.02 C 333.26 1.69 329.065 1.236 324.918 1.687 C 323.171 1.897 321.517 2.588 320.14 3.682 C 318.763 4.777 317.716 6.233 317.118 7.887 Z" fill="#FF8C19"/>
  <path d="M 372.218 110.187 C 371.818 114.887 372.618 116.487 373.718 114.587 C 374.491 112.881 374.965 111.054 375.118 109.187 L 372.218 110.187 Z" fill="black"/>
  <path d="M 360.218 79.487 C 351.618 80.587 346.818 82.087 342.518 84.087" stroke="black" stroke-width="2" stroke-linecap="round" stroke-linejoin="round"/>
  <path d="M 377.818 85.487 L 381.518 89.187" stroke="black" stroke-width="2" stroke-linecap="round" stroke-linejoin="round"/>
  <path d="M 355.918 120.987 C 355.918 120.987 351.418 124.287 348.518 126.687" stroke="black" stroke-width="2" stroke-linecap="round" stroke-linejoin="round"/>
  <path d="M 316.418 95.187 L 315.618 106.987 L 310.318 106.987 C 310.628 103.114 311.23 99.27 312.118 95.487 C 312.316 94.841 312.62 94.233 313.018 93.687 C 314.348 92.022 315.895 90.542 317.618 89.287 L 326.818 82.387 C 329.422 80.467 331.404 77.824 332.518 74.787 C 333.818 71.387 335.418 67.087 336.118 66.187" stroke="#F551A0" stroke-width="2" stroke-linecap="round" stroke-linejoin="round"/>
  <path d="M 372.118 78.887 C 367.918 89.487 363.318 107.487 366.818 116.087 C 367.169 116.897 367.605 117.668 368.118 118.387 L 370.118 118.187 C 369.361 117.402 368.751 116.488 368.318 115.487 C 365.118 107.787 369.118 91.187 373.318 80.187 L 372.118 78.887 Z" fill="#F551A0"/>
  <path d="M 279.518 102.787 C 279.918 103.259 280.39 103.664 280.918 103.987 C 281.918 92.287 286.718 82.387 294.118 76.587 L 292.118 76.287 C 285.218 82.187 280.618 91.687 279.518 102.787 Z" fill="#F551A0"/>
  <path d="M 359.818 120.287 L 348.718 121.587" stroke="black" stroke-width="2" stroke-linecap="round" stroke-linejoin="round"/>
  <path d="M 344.918 162.687 C 340.918 165.387 332.418 169.487 327.018 170.687 C 325.669 170.964 324.295 171.098 322.918 171.087 C 320.752 171.168 318.6 170.718 316.648 169.777 C 314.696 168.835 313.004 167.432 311.718 165.687 L 306.518 158.387 C 302.018 151.987 296.318 144.087 292.218 138.387 C 292.118 138.187 292.118 138.087 292.018 137.987 C 285.818 129.287 282.518 125.487 277.918 124.787 C 273.318 124.087 260.018 122.887 236.718 121.087 C 230.918 120.687 230.018 120.787 228.918 123.387 C 228.886 123.485 228.833 123.575 228.763 123.65 C 228.693 123.725 228.607 123.784 228.512 123.822 C 228.416 123.86 228.314 123.877 228.211 123.871 C 228.108 123.865 228.008 123.836 227.918 123.787 C 227.734 123.701 227.585 123.556 227.494 123.374 C 227.403 123.193 227.376 122.986 227.418 122.787 C 229.018 118.887 231.418 119.087 236.818 119.487 C 250.418 120.587 273.718 122.387 278.218 123.187 C 282.718 123.987 287.618 129.087 293.318 137.087 C 293.318 137.187 293.418 137.287 293.518 137.387 C 297.618 143.087 303.218 151.087 307.818 157.387 L 313.018 164.787 C 315.818 168.687 320.918 170.287 326.618 169.087 C 332.318 167.887 341.618 163.087 344.718 160.887 C 344.834 161.481 344.901 162.083 344.918 162.687 Z" fill="#5865F2"/>
  <path d="M 221.318 115.287 C 218.418 117.987 219.918 123.287 221.918 130.587 C 223.918 137.887 226.418 144.487 227.718 144.287 C 229.018 144.087 229.718 141.487 230.018 137.687 C 230.318 133.887 230.218 127.087 228.718 121.987 C 227.218 116.887 223.518 113.187 221.318 115.287 Z" fill="black"/>
  <path d="M 230.218 134.487 L 222.818 133.587 C 219.218 133.087 215.618 132.787 212.018 132.587 C 211.318 136.887 209.818 142.387 207.718 144.587 C 205.618 146.787 201.918 146.687 201.518 141.687 C 201.118 136.687 201.418 129.587 198.118 114.787 C 196.918 109.287 194.718 105.987 193.918 101.787 C 193.118 97.587 195.518 96.887 197.718 97.287 C 197.218 94.487 197.418 90.887 200.918 90.387 C 204.418 89.887 205.818 92.887 205.818 96.787 C 206.337 96.068 207.085 95.548 207.94 95.312 C 208.794 95.076 209.703 95.137 210.518 95.487 C 212.918 96.387 213.418 99.387 213.118 104.187 C 212.818 108.987 212.718 114.087 214.718 115.787 C 216.718 117.487 217.218 116.887 220.018 117.287 L 226.818 117.887 C 227.629 119.164 228.268 120.543 228.718 121.987 C 229.752 126.072 230.256 130.273 230.218 134.487 Z" fill="#FF78B9"/>
  <path d="M 230.218 134.487 C 230.256 130.273 229.752 126.072 228.718 121.987 C 228.268 120.543 227.629 119.164 226.818 117.887 L 225.918 117.887 C 228.418 121.087 229.918 129.487 225.918 133.987 C 226.481 134.464 227.124 134.836 227.818 135.087 C 228.663 135.168 229.51 134.957 230.218 134.487 Z" fill="black"/>
  <path d="M 210.618 101.387 C 211.018 96.687 207.718 94.687 205.818 96.787 C 205.818 92.887 204.518 89.887 200.918 90.387 C 197.318 90.887 197.218 94.487 197.718 97.287 C 195.518 96.887 193.118 97.687 193.918 101.787 C 194.718 105.887 196.918 109.287 198.118 114.787 C 201.418 129.587 201.018 135.787 201.518 141.687 C 201.525 142.876 201.91 144.032 202.618 144.987 C 204.918 147.387 205.918 144.487 205.818 140.087 C 205.763 133.201 206.164 126.32 207.018 119.487 C 208.018 111.487 210.318 106.087 210.618 101.387 Z" fill="#DE3A93"/>
  <path d="M 201.318 90.387 C 204.418 90.287 204.518 94.187 204.418 98.487 L 205.818 96.787 C 205.818 93.087 204.618 90.087 201.318 90.387 Z" fill="#FF78B9"/>
  <path d="M 281.618 139.587 C 280.046 143.461 278.174 147.206 276.018 150.787 C 280.618 148.787 282.518 147.787 282.518 147.787" stroke="black" stroke-width="2" stroke-linecap="round" stroke-linejoin="round"/>
  <path d="M 311.318 141.587 L 321.918 152.387 C 330.518 153.487 332.518 155.287 334.818 158.187" stroke="black" stroke-width="2" stroke-linecap="round" stroke-linejoin="round"/>
  <path d="M 321.918 152.387 L 331.618 152.687" stroke="black" stroke-width="2" stroke-linecap="round" stroke-linejoin="round"/>
  <path d="M 295.518 253.487 C 294.218 256.787 292.018 258.987 290.618 258.487 C 289.218 257.987 289.218 256.387 290.618 253.287 C 291.221 252.029 291.723 250.725 292.118 249.387 C 292.918 246.487 294.418 245.987 295.518 246.487 C 296.618 246.987 296.918 250.087 295.518 253.487 Z" fill="black"/>
  <path d="M 216.918 208.987 C 216.818 210.687 216.618 212.587 216.418 214.587 L 238.818 217.087 L 215.218 224.487 C 214.718 227.887 214.218 230.987 213.718 233.887 L 229.318 235.487 C 224.018 237.387 218.218 239.387 212.018 241.787 C 211.218 245.32 210.418 248.32 209.618 250.787 L 216.918 250.987 L 208.718 253.287 C 208.117 255.268 207.382 257.206 206.518 259.087 C 206.416 259.344 206.349 259.613 206.318 259.887 C 215.218 257.087 224.218 254.787 232.918 252.887 C 241.8 254.49 250.556 256.729 259.118 259.587 C 261.282 258.677 263.226 257.313 264.818 255.587 C 261.418 254.387 256.418 252.787 250.318 251.087 L 246.818 250.187 C 255.118 248.787 262.818 247.587 269.818 246.687 C 270.918 243.887 272.118 240.587 273.318 236.987 C 266.818 235.487 260.118 234.287 253.618 233.187 C 263.018 230.287 270.418 228.187 276.618 226.687 C 277.618 223.287 278.618 219.687 279.618 215.887 L 266.118 214.487 L 281.018 209.887 L 282.618 203.587 L 252.118 212.887 L 216.918 208.987 Z M 267.218 241.387 C 257.018 242.787 245.118 244.587 232.718 247.287 C 228.051 246.487 223.151 245.887 218.018 245.487 C 226.918 242.187 234.718 239.387 241.718 237.087 C 249.818 238.187 258.618 239.587 267.218 241.387 Z M 275.818 221.087 C 267.318 223.187 256.318 226.287 241.218 231.387 C 233.118 230.287 225.818 229.487 219.918 228.887 L 252.718 218.587 L 275.818 221.087 Z" fill="#3F4EEB"/>
  <path d="M 217.318 201.087 C 217.218 202.987 217.218 205.087 217.018 207.487 C 242.618 206.687 271.918 203.587 282.918 202.287 C 283.518 199.687 284.118 197.487 284.718 195.587 C 276.818 196.587 244.918 200.287 217.318 201.087 Z" fill="#3F4EEB"/>
  <path d="M 260.618 254.187 L 264.818 255.587 C 263.226 257.313 261.282 258.677 259.118 259.587 L 255.118 258.287 C 257.218 257.321 259.092 255.924 260.618 254.187 Z" fill="black"/>
  <path d="M 270.018 236.287 L 273.318 236.987 C 272.118 240.587 270.918 243.887 269.818 246.687 L 265.418 247.287 C 267.285 243.769 268.825 240.087 270.018 236.287 Z" fill="black"/>
  <path d="M 275.718 215.487 L 279.618 215.887 C 278.618 219.687 277.618 223.287 276.618 226.687 L 272.618 227.687 C 273.218 225.687 273.718 223.587 274.218 221.487 C 274.318 221.287 274.318 221.087 274.418 220.887 C 274.818 219.087 275.318 217.287 275.718 215.487 Z" fill="black"/>
  <path d="M 278.318 204.887 L 282.618 203.587 L 281.018 209.887 L 276.718 211.187 C 277.218 209.087 277.818 206.987 278.318 204.887 Z" fill="black"/>
  <path d="M 284.718 195.587 C 284.118 197.487 283.518 199.687 282.918 202.287 L 278.818 202.687 L 280.618 196.087 L 284.718 195.587 Z" fill="black"/>
  <path d="M 208.718 253.287 L 213.718 251.887 C 213.018 254.087 212.318 256.187 211.518 258.287 L 206.318 259.887 C 206.349 259.613 206.416 259.344 206.518 259.087 C 207.382 257.206 208.117 255.268 208.718 253.287 Z" fill="black"/>
  <path d="M 212.018 241.787 L 216.518 240.087 C 215.818 243.887 215.018 247.387 214.018 250.887 L 209.618 250.887 C 210.418 248.354 211.218 245.32 212.018 241.787 Z" fill="black"/>
  <path d="M 215.218 224.487 L 218.918 223.287 C 218.518 227.187 218.018 230.787 217.518 234.287 L 213.718 233.887 C 214.218 230.987 214.718 227.887 215.218 224.487 Z" fill="black"/>
  <path d="M 216.918 208.987 L 220.318 209.387 L 219.718 214.887 L 216.418 214.587 C 216.618 212.587 216.818 210.687 216.918 208.987 Z" fill="black"/>
  <path d="M 221.118 200.987 L 220.518 207.387 L 217.018 207.387 C 217.218 204.987 217.218 202.887 217.318 200.987 L 221.118 200.987 Z" fill="black"/>
  <path d="M 318.518 226.387 L 318.718 234.887 C 318.724 235.328 318.847 235.759 319.073 236.137 C 319.3 236.515 319.623 236.827 320.008 237.04 C 320.394 237.253 320.83 237.361 321.27 237.351 C 321.711 237.342 322.141 237.216 322.518 236.987 C 322.969 236.692 323.317 236.264 323.514 235.762 C 323.711 235.261 323.747 234.71 323.618 234.187 L 320.718 224.187 L 318.518 226.387 Z" fill="white"/>
  <path d="M 303.918 200.787 C 311.918 203.287 313.518 211.787 315.218 226.187 C 315.252 226.541 315.381 226.88 315.59 227.168 C 315.799 227.457 316.081 227.684 316.407 227.826 C 316.733 227.969 317.091 228.022 317.445 227.98 C 317.798 227.938 318.134 227.802 318.418 227.587 L 321.218 225.487 C 321.951 224.963 322.526 224.247 322.879 223.418 C 323.232 222.589 323.349 221.679 323.218 220.787 C 322.918 218.987 322.418 216.187 321.918 212.387 C 320.718 204.987 315.818 195.987 306.418 194.887 C 305.908 194.836 305.395 194.943 304.947 195.193 C 304.5 195.444 304.141 195.826 303.918 196.287 C 303.44 197.426 303.202 198.652 303.218 199.887 C 303.229 200.091 303.302 200.286 303.427 200.447 C 303.552 200.607 303.723 200.726 303.918 200.787 Z" fill="#3F4EEB"/>
</svg>